<?xml version="1.0" standalone="no"?>
<!DOCTYPE svg PUBLIC "-//W3C//DTD SVG 20010904//EN"
 "http://www.w3.org/TR/2001/REC-SVG-20010904/DTD/svg10.dtd">
<svg version="1.0" xmlns="http://www.w3.org/2000/svg"
 width="400.000000pt" height="400.000000pt" viewBox="0 0 400.000000 400.000000"
 preserveAspectRatio="xMidYMid meet">
<metadata>
Created by potrace 1.11, written by Peter Selinger 2001-2013
</metadata>
<g transform="translate(0.000000,400.000000) scale(0.100000,-0.100000)"
fill="#000000" stroke="none">
<path d="M0 2000 l0 -2000 2000 0 2000 0 0 2000 0 2000 -2000 0 -2000 0 0
-2000z m3811 1845 c16 -9 34 -27 39 -41 16 -40 13 -3586 -2 -3619 -26 -58 90
-55 -1859 -55 l-1791 0 -34 34 -34 34 2 1807 3 1807 30 24 30 24 1793 0 c1599
0 1796 -2 1823 -15z"/>
<path d="M847 3537 c-8 -12 -18 -37 -21 -54 -4 -18 -20 -43 -35 -55 -37 -32
-45 -47 -32 -62 8 -10 6 -17 -9 -31 -13 -12 -17 -25 -14 -45 4 -15 1 -31 -5
-34 -6 -4 -9 -11 -6 -15 2 -5 0 -22 -5 -40 -7 -24 -6 -31 5 -31 10 0 12 -9 8
-35 -4 -23 -2 -35 6 -35 7 0 9 -9 5 -25 -4 -16 -2 -25 5 -25 9 0 9 -5 1 -21
-11 -19 -13 -19 -29 -5 -28 25 -71 196 -49 196 7 0 9 14 5 40 -4 30 -1 42 10
49 12 6 13 12 4 30 -7 12 -8 21 -2 21 5 0 1 23 -9 51 -11 32 -16 66 -13 90 3
22 3 39 0 39 -10 0 -37 -63 -37 -86 0 -12 -13 -35 -30 -50 -20 -19 -26 -31
-18 -36 9 -5 8 -12 -5 -26 -23 -25 -21 -31 6 -25 21 4 21 4 3 -11 -14 -11 -19
-30 -21 -69 -1 -29 -5 -58 -8 -64 -4 -7 -2 -15 4 -18 6 -4 8 -17 5 -30 -4 -16
-1 -25 10 -29 10 -4 14 -12 10 -23 -4 -9 1 -24 11 -35 15 -17 15 -20 1 -34
-13 -13 -19 -14 -36 -3 -37 23 -54 119 -44 244 3 41 -2 73 -15 86 -7 7 -9 34
-6 70 4 41 2 59 -6 59 -6 0 -11 -8 -11 -17 0 -28 -30 -107 -44 -118 -7 -6 -16
-21 -20 -35 -6 -19 -5 -21 3 -10 6 8 11 10 11 4 0 -6 -9 -23 -20 -37 -18 -23
-19 -26 -3 -29 15 -3 15 -4 -1 -20 -14 -14 -15 -22 -6 -39 9 -15 9 -24 1 -32
-16 -16 -13 -30 5 -23 14 5 15 4 5 -8 -7 -8 -10 -20 -6 -26 4 -6 2 -17 -4 -24
-9 -11 -7 -15 10 -19 13 -3 19 -11 16 -19 -3 -7 -8 -21 -12 -30 -5 -13 -2 -18
10 -18 17 0 17 -10 -1 -54 -6 -16 -4 -18 9 -13 25 9 31 -11 12 -39 -18 -28
-13 -43 9 -25 22 18 28 -14 11 -56 -19 -44 -19 -42 5 -36 15 4 20 0 20 -15 0
-12 -5 -24 -10 -27 -16 -10 -11 -28 6 -21 14 5 15 1 10 -30 -5 -22 -3 -41 4
-49 9 -11 8 -18 -6 -32 -17 -17 -17 -18 5 -21 21 -3 22 -7 16 -54 -6 -43 -5
-50 8 -45 25 10 28 -20 5 -59 l-21 -36 23 7 c21 7 22 5 16 -19 -21 -87 -21
-82 -2 -67 23 19 32 7 18 -24 -17 -36 -15 -58 3 -51 18 6 19 -14 6 -62 -6 -20
-6 -32 0 -32 5 0 9 5 9 11 0 8 4 8 14 -1 11 -8 12 -18 5 -36 -13 -35 -11 -47
5 -41 16 6 30 -30 15 -39 -5 -3 -9 -17 -9 -31 0 -21 2 -24 15 -13 13 10 15 9
16 -11 1 -13 1 -39 0 -57 -2 -29 0 -33 16 -28 16 5 19 0 21 -31 2 -21 8 -41
15 -45 6 -4 11 -22 10 -40 -2 -27 -1 -29 6 -13 8 16 10 13 10 -18 1 -34 3 -38
22 -32 14 5 20 3 18 -7 -5 -41 1 -59 20 -53 15 4 20 -2 27 -37 8 -38 12 -42
39 -43 25 0 30 -4 31 -25 2 -45 4 -49 17 -44 13 5 30 -21 43 -66 6 -23 7 -24
14 -5 6 16 10 12 19 -23 10 -36 15 -41 26 -32 19 16 31 6 39 -32 5 -25 9 -30
16 -18 10 17 11 16 29 -24 9 -22 15 -26 21 -17 10 18 30 5 30 -19 0 -10 5 -22
10 -25 5 -3 10 2 10 11 0 21 16 8 34 -28 7 -12 19 -22 28 -20 10 1 20 -10 28
-30 7 -18 14 -27 17 -20 8 20 22 14 38 -17 11 -23 20 -28 36 -24 14 4 26 0 33
-9 6 -8 18 -17 26 -21 8 -3 -15 -5 -52 -4 -38 1 -68 5 -68 10 0 4 -23 7 -51 7
-47 0 -50 2 -38 17 13 15 12 15 -8 4 -22 -11 -27 -8 -24 12 1 5 -12 6 -29 2
-26 -6 -30 -4 -30 14 0 18 -4 20 -31 14 -29 -5 -31 -4 -24 17 6 19 4 21 -13
16 -12 -4 -24 -2 -28 5 -5 8 -3 9 6 4 8 -5 11 -4 6 3 -4 6 -22 14 -41 18 -20
3 -35 12 -35 20 0 13 -18 19 -48 15 -7 -1 -15 5 -18 14 -4 10 -13 13 -24 10
-36 -11 -60 -14 -55 -5 5 8 -8 10 -135 26 -50 6 -67 -6 -19 -13 24 -4 69 -32
69 -44 0 -5 13 -23 29 -40 22 -22 42 -32 73 -36 83 -10 123 -41 92 -71 -17
-16 -118 -27 -109 -12 3 5 1 10 -4 10 -6 0 -11 -3 -11 -7 0 -5 -22 -6 -50 -5
-32 3 -50 0 -50 -7 0 -6 -5 -11 -11 -11 -5 0 -7 5 -4 10 4 6 -7 13 -25 16 -17
4 -33 11 -36 15 -3 5 -10 7 -15 3 -5 -3 -16 0 -24 6 -20 17 -84 30 -91 19 -3
-5 -40 -9 -82 -10 l-77 -1 55 -18 c30 -10 67 -31 85 -49 17 -17 35 -28 39 -24
4 4 18 -6 32 -22 14 -17 23 -24 19 -17 -7 14 21 17 29 3 3 -5 15 -7 26 -4 11
3 26 0 34 -6 10 -9 16 -9 21 -1 5 8 13 6 26 -6 11 -10 19 -12 19 -6 0 7 7 12
15 12 8 0 15 -4 15 -9 0 -10 19 -9 37 2 7 4 22 3 33 -3 13 -7 20 -7 20 0 0 16
17 12 24 -7 12 -31 -16 -43 -114 -49 -70 -3 -96 -1 -102 8 -6 9 -10 10 -15 2
-6 -8 -24 -6 -63 8 -64 23 -94 24 -122 4 -18 -13 -25 -13 -50 0 -16 8 -41 14
-54 12 -21 -3 -15 -8 40 -37 36 -19 68 -42 71 -51 7 -21 52 -43 60 -30 4 6 15
5 28 -2 12 -7 27 -11 34 -10 6 1 14 -2 18 -8 3 -5 11 -10 16 -10 6 0 7 5 3 11
-8 13 33 3 54 -13 8 -7 12 -7 12 2 0 9 9 11 30 6 19 -3 30 -1 30 6 0 6 11 8
29 5 21 -5 31 -2 35 10 5 12 9 13 21 3 11 -9 18 -10 28 -1 11 8 18 6 31 -8 23
-25 14 -38 -32 -50 -96 -25 -208 -30 -257 -11 -39 15 -81 12 -99 -6 -17 -17
-28 -18 -99 -11 -29 3 -50 0 -54 -7 -3 -6 -3 -8 1 -4 5 4 30 -2 57 -13 28 -10
57 -19 65 -19 17 0 44 -23 44 -38 0 -6 7 -13 16 -16 21 -8 26 -8 20 2 -2 4 4
8 15 8 10 0 19 -6 19 -13 0 -16 27 -17 32 -1 3 7 9 8 18 3 20 -12 99 -15 106
-3 3 5 14 6 25 3 10 -4 19 -3 19 2 0 11 108 15 114 4 8 -13 -23 -36 -75 -55
-31 -11 -71 -16 -124 -14 -64 1 -80 -1 -91 -16 -7 -11 -24 -17 -41 -16 -15 1
-46 1 -68 0 -38 -1 -38 -2 -15 -12 14 -5 36 -11 50 -13 39 -4 74 -21 90 -44
10 -15 16 -17 22 -8 6 9 12 9 28 -1 17 -10 20 -10 20 3 0 21 17 19 37 -4 15
-18 18 -19 29 -3 10 14 16 14 40 4 23 -11 29 -11 36 2 6 11 17 14 39 9 22 -4
29 -2 27 8 -2 10 7 14 27 14 17 0 40 6 52 13 13 7 34 10 48 6 19 -5 25 -2 25
10 0 11 9 16 33 16 17 0 40 7 50 15 11 7 25 11 33 8 7 -3 21 3 30 12 11 11 25
14 41 10 16 -4 25 -1 30 11 5 13 14 15 50 9 31 -5 43 -3 38 4 -10 17 20 23 58
13 29 -8 35 -7 30 4 -3 9 1 12 16 9 12 -3 30 -7 41 -9 13 -3 20 0 20 10 0 16
18 18 55 4 24 -9 26 -8 20 10 -7 23 -3 24 42 11 27 -8 32 -6 36 10 4 15 12 19
31 15 14 -3 31 -8 37 -12 8 -4 9 1 4 16 -7 22 -5 23 29 17 29 -5 41 -2 57 14
12 12 27 18 38 14 13 -4 20 1 24 15 4 15 13 20 36 20 18 0 40 9 51 20 14 14
28 18 45 14 21 -5 25 -3 25 15 0 16 6 21 29 21 20 0 30 6 34 20 4 15 14 20 36
20 26 0 31 4 31 25 0 14 3 25 8 26 4 1 23 2 42 3 27 1 35 6 35 21 0 12 8 21
20 23 28 6 45 21 39 37 -3 7 1 17 8 21 13 8 17 9 49 12 9 1 19 11 22 21 3 11
18 22 38 26 30 7 31 9 15 20 -16 12 -16 14 6 29 12 9 30 16 39 16 22 0 31 11
18 26 -7 9 0 17 31 30 30 14 39 22 34 36 -4 13 2 19 21 24 14 3 25 11 24 18
-4 31 3 44 27 50 15 4 24 10 21 13 -11 10 13 44 38 53 16 6 22 15 18 28 -3 12
4 24 21 35 15 10 23 23 20 31 -3 8 3 19 15 26 12 6 21 20 21 31 0 18 21 49 33
49 9 0 23 -55 19 -72 -2 -10 -10 -18 -18 -18 -17 0 -17 -5 -4 -31 7 -13 7 -19
0 -19 -5 0 -10 -13 -10 -30 0 -16 -5 -30 -11 -30 -6 0 -9 -10 -8 -22 1 -13 -2
-32 -6 -42 -8 -18 -9 -18 -22 0 -10 13 -13 14 -14 3 -1 -8 -1 -18 0 -23 1 -5
-1 -16 -4 -25 -5 -13 -7 -14 -15 -1 -7 11 -10 7 -10 -17 0 -23 -6 -33 -20 -38
-11 -4 -20 -15 -20 -27 0 -14 -5 -18 -15 -14 -8 3 -16 0 -16 -7 -1 -7 -2 -17
-3 -23 0 -6 -8 -18 -18 -27 -10 -10 -14 -25 -11 -39 5 -17 3 -20 -10 -15 -13
5 -17 -4 -23 -49 -3 -30 -10 -54 -14 -54 -7 0 -12 -22 -25 -118 -7 -47 11 -60
20 -15 4 16 10 36 16 45 5 10 9 26 9 35 0 12 3 14 8 6 10 -15 52 -5 52 12 0 7
7 15 15 19 9 3 15 18 15 36 0 21 5 30 16 30 11 0 14 6 9 20 -8 24 18 69 37 66
36 -5 49 -24 52 -72 2 -27 -1 -57 -6 -67 -10 -20 -18 -62 -22 -113 -1 -18 -6
-38 -12 -45 -6 -8 -15 -27 -20 -44 -9 -35 -12 -255 -3 -249 6 4 23 75 19 82
-1 2 20 23 47 48 28 25 42 44 33 44 -11 1 -9 6 8 19 23 20 29 41 11 41 -6 0
-1 9 12 20 21 17 22 19 6 20 -18 0 -17 2 2 34 16 25 18 35 9 38 -10 4 -10 8 1
21 9 12 10 21 3 30 -15 18 4 59 25 55 10 -2 19 -9 19 -16 1 -6 3 -15 4 -19 7
-16 5 -153 -2 -153 -6 0 -27 -79 -33 -127 -2 -15 3 -38 11 -51 10 -15 13 -37
10 -67 -7 -55 7 -59 23 -6 6 22 26 52 44 68 19 17 31 35 29 46 -2 10 1 24 8
32 8 10 8 15 0 20 -8 5 -6 13 7 27 13 15 15 22 6 25 -18 6 -16 28 2 43 12 10
13 16 4 26 -8 10 -8 18 -1 27 11 13 9 60 -3 91 -5 11 -3 21 6 27 22 14 27 11
37 -23 10 -31 12 -45 13 -91 0 -9 5 -15 10 -11 12 7 7 -17 -7 -33 -17 -18 -26
-107 -14 -138 5 -14 17 -33 25 -41 14 -15 19 -46 16 -104 l-1 -25 14 25 c8 14
18 44 22 68 3 24 16 51 29 64 18 18 21 25 12 40 -9 13 -8 21 0 29 7 7 9 24 6
39 -3 15 0 31 6 34 16 10 13 26 -3 20 -11 -4 -13 0 -9 15 3 12 9 24 14 27 14
8 11 24 -3 21 -8 -1 -12 7 -10 22 1 14 -3 28 -10 32 -10 7 -10 11 0 21 17 17
15 31 -3 24 -12 -4 -15 2 -15 28 0 28 3 33 19 29 12 -3 27 -28 43 -71 40 -108
44 -125 38 -162 -7 -38 10 -84 33 -93 9 -3 16 -28 20 -67 8 -96 25 -98 34 -4
3 33 13 69 21 82 19 29 23 84 8 94 -8 5 -8 13 2 28 16 25 15 42 -1 38 -15 -4
-19 10 -11 36 4 10 0 22 -7 27 -11 6 -11 14 -2 39 10 26 10 31 -2 26 -7 -2
-17 3 -21 12 -8 20 -8 20 0 48 5 17 3 22 -11 20 -19 -1 -22 23 -8 57 6 15 4
18 -11 15 -16 -2 -19 2 -16 30 1 18 -3 32 -9 32 -7 0 -9 12 -5 35 5 26 4 35
-6 33 -7 -2 -14 8 -16 21 -2 13 0 21 5 18 4 -3 8 7 9 23 1 22 -3 26 -18 23
-22 -6 -23 12 -3 47 19 33 19 46 0 30 -26 -22 -42 3 -21 34 20 31 20 36 1 36
-20 0 -19 15 2 47 17 25 17 26 -6 18 -23 -7 -24 -6 -18 31 3 22 8 48 12 59 7
16 6 18 -6 8 -7 -7 -17 -13 -22 -13 -10 0 -5 50 8 82 5 13 2 15 -15 11 -21 -6
-22 -4 -15 37 6 36 5 42 -8 37 -12 -4 -14 3 -11 41 2 36 -1 49 -17 60 -15 10
-17 17 -9 32 15 29 13 53 -5 46 -21 -8 -28 15 -15 49 12 33 7 43 -15 25 -16
-13 -17 -12 -19 40 0 19 -5 36 -10 37 -17 3 -26 29 -19 62 5 31 4 34 -15 29
-25 -7 -34 11 -25 52 5 25 2 30 -14 30 -26 0 -35 10 -23 25 7 8 7 21 1 36 -5
13 -10 18 -10 10 -1 -11 -4 -11 -16 -1 -11 9 -14 23 -9 45 5 28 3 32 -18 31
-18 -1 -24 5 -26 27 -3 22 -7 27 -23 22 -15 -5 -19 -1 -19 17 0 21 -19 64 -20
44 0 -19 -29 17 -35 45 -7 31 -15 35 -33 17 -12 -12 -15 -8 -26 44 -4 18 -11
25 -20 22 -8 -3 -19 3 -25 15 -6 11 -20 22 -30 26 -11 3 -21 16 -23 28 -2 12
-10 22 -18 23 -34 2 -40 5 -40 17 0 8 -11 20 -25 27 -14 7 -25 17 -25 22 0 5
-5 6 -11 3 -13 -8 -49 23 -49 42 0 8 5 11 11 8 10 -6 36 -11 96 -18 12 -1 25
-5 29 -9 4 -5 16 -8 26 -8 10 0 18 -4 18 -10 0 -5 9 -10 20 -10 12 0 17 -5 14
-13 -3 -9 3 -13 18 -13 16 1 22 -4 20 -15 -2 -12 4 -15 23 -11 19 3 27 -1 34
-19 5 -13 10 -20 10 -15 1 4 17 -4 36 -18 19 -15 49 -32 65 -38 16 -5 27 -14
24 -19 -3 -5 6 -9 21 -9 14 0 28 -7 31 -15 4 -10 13 -13 25 -10 11 4 19 2 19
-4 0 -6 11 -11 25 -11 14 0 25 -5 25 -10 0 -7 6 -7 19 0 11 5 22 6 25 2 7 -11
206 -13 206 -3 0 4 -24 13 -53 20 -42 9 -55 17 -64 39 -16 35 -43 51 -101 59
-48 6 -86 28 -76 45 12 19 53 27 90 16 28 -7 39 -7 42 1 3 9 7 9 18 0 8 -6 11
-15 8 -20 -7 -12 3 -11 25 1 13 7 23 4 37 -8 27 -25 115 -65 139 -64 11 1 30
6 42 13 17 9 30 8 62 -4 58 -24 59 -4 1 33 -27 17 -52 40 -55 50 -3 11 -12 17
-18 14 -7 -2 -23 7 -35 21 -13 15 -28 22 -37 19 -9 -4 -24 1 -34 10 -10 9 -22
16 -27 14 -5 -1 -20 4 -34 12 -14 8 -45 15 -70 16 -25 0 -51 2 -57 3 -20 2
-15 29 7 36 32 10 170 -14 206 -35 46 -29 124 -37 155 -17 19 13 33 14 68 6
65 -14 71 -6 15 21 -27 13 -66 39 -87 57 -21 19 -42 31 -47 28 -5 -3 -12 -1
-15 5 -5 8 -11 8 -20 0 -9 -8 -17 -6 -29 6 -9 9 -23 14 -31 11 -7 -3 -25 3
-39 14 -18 14 -26 16 -29 7 -3 -10 -9 -10 -27 0 -15 9 -26 10 -33 3 -6 -6 -17
-5 -33 6 -19 12 -27 13 -39 3 -15 -12 -55 -5 -55 10 0 15 17 21 75 26 31 3 64
7 73 9 9 1 28 -4 40 -12 13 -8 38 -16 55 -19 17 -2 35 -8 41 -14 16 -16 54
-12 75 9 11 11 22 17 25 13 4 -3 12 -7 19 -8 7 -1 28 -5 48 -9 59 -11 53 10
-9 35 -31 12 -67 32 -79 44 -50 48 -75 58 -101 42 -9 -5 -18 -2 -26 9 -9 12
-21 16 -39 13 -15 -3 -31 0 -37 7 -11 14 -67 18 -75 5 -7 -11 -45 -1 -45 12 0
6 -7 5 -15 -2 -26 -22 -39 3 -14 26 21 19 83 23 221 13 32 -3 52 1 65 12 13
12 33 15 76 12 33 -3 57 -1 57 5 0 11 -53 32 -81 32 -10 0 -34 14 -52 30 -34
29 -77 40 -77 20 0 -15 -21 -12 -42 7 -17 15 -20 15 -28 3 -8 -13 -13 -13 -37
2 -24 14 -30 14 -41 2 -8 -9 -22 -12 -34 -8 -15 4 -18 3 -13 -6 6 -10 1 -11
-18 -6 -14 3 -29 2 -32 -4 -4 -7 -13 -6 -27 1 -18 10 -25 8 -40 -11 -18 -22
-19 -22 -38 -5 -18 16 -20 16 -35 1 -19 -19 -27 -20 -43 -4 -8 8 -15 8 -24 1
-7 -6 -28 -10 -46 -9 -17 0 -32 -2 -32 -6 0 -18 -42 -29 -71 -19 -27 9 -30 8
-24 -8 7 -23 -35 -34 -53 -14 -17 17 -32 17 -32 -1 0 -23 -17 -28 -33 -11 -20
19 -41 20 -34 1 7 -18 -22 -31 -37 -16 -13 13 -56 13 -57 0 -1 -5 -2 -14 -3
-19 -2 -19 -13 -21 -26 -6 -17 21 -37 19 -50 -5 -11 -20 -40 -28 -40 -11 0 5
-9 11 -20 14 -15 4 -20 1 -18 -11 3 -18 -20 -21 -60 -8 -21 7 -23 6 -17 -14 7
-22 6 -22 -40 -16 -35 6 -45 5 -40 -4 5 -9 1 -10 -14 -5 -13 4 -21 2 -21 -5 0
-7 -12 -9 -35 -4 -28 5 -35 3 -33 -7 2 -11 -8 -13 -44 -11 -37 2 -48 0 -48
-11 0 -19 -30 -31 -43 -18 -14 14 -50 -7 -43 -25 6 -17 -15 -19 -31 -3 -16 16
-73 2 -66 -17 4 -11 -4 -14 -35 -14 -23 0 -44 -4 -47 -10 -3 -5 -1 -10 6 -10
8 0 8 -4 -1 -15 -9 -11 -22 -14 -42 -9 -24 5 -30 2 -35 -15 -4 -16 -13 -21
-39 -21 -35 0 -42 -8 -23 -27 9 -9 4 -11 -17 -8 -44 6 -64 -3 -61 -27 1 -17
-5 -23 -29 -28 -45 -10 -57 -19 -44 -35 8 -10 1 -14 -35 -20 -39 -5 -45 -9
-40 -25 5 -16 -2 -21 -36 -30 -38 -10 -40 -12 -23 -25 21 -15 18 -17 -39 -29
-21 -5 -27 -11 -22 -24 4 -14 -4 -23 -30 -35 -38 -18 -44 -31 -19 -45 12 -6 6
-11 -26 -21 -33 -10 -40 -16 -35 -31 5 -14 -2 -23 -25 -35 -23 -12 -30 -21
-25 -35 4 -13 -1 -22 -15 -30 -12 -6 -19 -17 -17 -24 3 -7 -1 -23 -8 -36 l-13
-24 -16 32 c-18 35 -21 82 -6 82 6 0 9 15 8 33 -2 22 1 31 10 29 10 -2 11 7 6
34 -6 33 -5 36 11 30 13 -5 16 -2 11 10 -7 19 11 57 25 49 5 -4 9 5 9 19 0 29
19 44 31 25 6 -10 9 -4 9 19 0 25 5 35 19 39 11 3 21 15 23 27 2 14 9 20 22
18 11 -2 15 1 11 8 -10 15 3 62 15 55 6 -4 10 7 10 24 0 19 5 31 13 31 9 0 13
12 12 35 0 19 3 35 7 35 3 0 7 18 6 39 0 22 3 44 6 49 10 17 24 102 16 102 -3
0 -17 -20 -29 -45 -13 -27 -39 -56 -64 -73 -37 -25 -43 -34 -53 -85 -13 -63
-29 -89 -53 -85 -13 3 -16 20 -17 101 0 54 3 100 8 103 4 3 8 11 8 19 0 7 15
40 33 72 46 80 50 103 28 139 -16 27 -17 35 -4 83 7 30 12 56 9 58 -4 5 -46
-64 -46 -77 0 -5 -13 -19 -30 -31 -16 -12 -27 -25 -25 -29 3 -4 -5 -10 -18
-14 -18 -5 -20 -8 -7 -16 13 -9 10 -14 -15 -35 -16 -14 -24 -25 -17 -25 20 0
13 -28 -9 -35 -17 -6 -19 -9 -8 -16 11 -6 11 -11 1 -21 -6 -6 -12 -21 -12 -33
0 -12 -6 -27 -12 -33 -10 -10 -10 -17 -1 -31 8 -12 8 -22 1 -29 -6 -6 -6 -12
1 -16 11 -7 -6 -56 -20 -56 -22 0 -31 207 -10 220 6 3 13 35 17 71 4 52 2 68
-10 78 -9 7 -13 18 -10 23 6 9 23 118 18 118 -1 0 -8 -10 -17 -23z m2497 -193
c3 -8 2 -12 -4 -9 -6 3 -10 10 -10 16 0 14 7 11 14 -7z m-1178 -741 c11 -16
31 -47 44 -70 13 -24 28 -43 33 -43 5 0 7 -7 4 -14 -4 -11 -1 -13 10 -9 12 5
14 1 9 -18 l-7 -24 18 23 c18 21 18 22 30 3 11 -18 9 -63 -4 -84 -3 -6 -1 -7
6 -3 7 4 15 -2 20 -16 l8 -22 14 22 c20 31 33 27 26 -8 -6 -29 5 -41 18 -20
12 20 24 -1 18 -30 -3 -18 0 -36 7 -45 7 -8 8 -15 3 -15 -5 0 -7 -16 -5 -36 3
-28 1 -35 -8 -29 -8 5 -11 4 -6 -3 4 -6 13 -9 20 -6 18 7 27 -31 19 -78 -6
-40 -18 -50 -26 -20 -3 10 -5 5 -6 -12 -1 -20 3 -27 13 -23 8 3 17 -2 21 -11
3 -9 3 -13 -1 -9 -4 3 -20 -5 -36 -18 -16 -14 -33 -25 -38 -25 -4 0 -6 -9 -3
-20 3 -11 0 -20 -6 -20 -19 0 -51 -39 -45 -55 4 -9 0 -15 -10 -15 -9 0 -21 -9
-28 -20 -7 -11 -22 -20 -33 -20 -11 0 -30 -7 -41 -15 -12 -8 -24 -12 -27 -8
-11 10 -37 -18 -37 -40 0 -16 -3 -18 -12 -9 -17 17 -47 15 -54 -3 -4 -8 -12
-15 -20 -15 -7 0 -19 -8 -26 -18 -15 -21 -48 -36 -48 -23 0 5 6 12 13 14 9 4
9 6 0 6 -13 1 -26 -16 -29 -37 -4 -27 -14 -42 -26 -42 -9 0 -9 3 0 12 7 7 12
18 12 25 0 25 -37 12 -75 -27 -31 -32 -36 -42 -26 -54 11 -13 8 -14 -16 -11
-15 2 -30 4 -33 5 -3 2 -9 2 -14 1 -5 -1 -3 5 4 14 10 12 15 13 21 4 4 -8 11
-4 20 12 11 22 11 23 -4 10 -10 -7 -17 -11 -17 -7 0 4 -11 -1 -24 -10 -14 -8
-27 -15 -30 -15 -26 4 -36 -2 -36 -21 0 -16 -3 -19 -11 -11 -7 7 -24 4 -57
-12 -59 -28 -102 -39 -102 -25 0 7 -6 8 -19 1 -13 -7 -23 -6 -36 3 -24 18 -14
41 30 67 19 12 38 32 41 45 3 13 10 21 15 18 14 -9 10 6 -6 22 -17 18 -20 44
-5 44 9 0 24 -7 59 -27 2 -2 -2 -9 -9 -18 -20 -24 -3 -17 24 10 21 21 22 26
10 36 -9 7 -19 20 -25 30 -8 16 -5 17 26 12 40 -6 48 10 14 28 -15 8 -20 18
-16 35 3 16 0 24 -9 24 -9 0 -14 -11 -14 -30 0 -16 -4 -30 -10 -30 -5 0 -10 7
-10 15 0 8 -4 15 -10 15 -5 0 -10 -4 -10 -9 0 -6 5 -13 10 -16 13 -8 13 -45 1
-45 -5 0 -16 7 -25 15 -8 8 -20 15 -26 15 -6 0 -8 5 -5 10 7 11 -18 14 -28 4
-3 -3 3 -20 14 -37 10 -18 19 -37 19 -44 0 -17 -40 -3 -53 18 -14 23 -27 25
-27 4 0 -8 -5 -15 -10 -15 -6 0 -8 -11 -4 -25 7 -28 -7 -33 -26 -10 -7 8 -16
13 -20 10 -4 -2 -6 6 -5 20 4 31 -18 38 -46 14 -12 -10 -18 -19 -13 -19 6 0
15 5 22 12 6 6 15 8 19 3 5 -4 3 -10 -3 -12 -7 -2 -10 -18 -7 -41 l5 -37 -31
29 c-17 16 -28 33 -25 38 4 6 -8 7 -26 5 -22 -4 -30 -2 -27 6 6 17 -20 41 -27
24 -3 -8 -9 -5 -18 8 -7 11 -13 22 -13 25 0 3 -10 16 -22 30 l-23 24 22 23
c13 14 25 20 31 14 11 -11 35 -3 61 21 11 10 25 18 30 18 6 0 4 -5 -4 -10 -8
-5 -10 -9 -5 -9 6 0 24 9 40 20 30 19 47 27 73 35 7 2 10 9 6 15 -4 7 -3 9 3
6 6 -4 16 0 23 8 7 8 17 12 22 9 5 -3 25 10 44 30 25 26 34 31 34 18 0 -13 2
-14 9 -4 4 8 12 13 17 12 5 -1 10 3 12 9 2 6 -1 11 -8 11 -6 0 -8 5 -5 10 5 8
11 7 21 -1 11 -9 14 -8 14 5 0 10 14 29 30 43 17 13 28 29 24 34 -3 5 8 17 25
26 31 18 57 59 41 65 -6 2 -5 9 0 18 9 13 11 13 20 0 8 -12 10 -11 10 8 0 13
3 21 8 19 4 -2 17 7 30 19 18 18 20 23 8 27 -9 4 -18 2 -21 -3 -4 -6 -11 -10
-16 -10 -15 0 -6 35 9 36 25 3 27 5 12 14 -10 6 -11 10 -2 10 6 0 12 4 12 10
0 5 -7 7 -15 4 -8 -4 -15 -1 -15 5 0 6 7 11 15 11 9 0 15 9 15 21 0 18 -2 19
-15 9 -12 -10 -15 -9 -15 8 0 29 10 52 23 52 7 0 7 -4 -1 -12 -7 -7 -12 -16
-12 -22 0 -5 9 1 20 14 16 18 20 20 20 7 0 -10 7 -17 16 -17 11 0 14 -5 10
-16 -5 -12 -2 -15 10 -10 11 4 15 2 11 -8 -4 -10 3 -17 24 -21 16 -4 29 -11
29 -16 0 -5 11 -8 25 -7 14 1 25 6 25 11 0 5 6 7 14 4 8 -3 20 1 26 8 7 8 16
13 20 10 4 -3 13 2 20 10 10 12 16 13 28 3 13 -11 15 -10 9 4 -3 9 -1 19 6 22
9 3 8 7 -2 14 -10 8 -11 14 -1 28 10 17 11 17 6 1 -3 -11 -2 -15 4 -12 16 10
12 35 -6 42 -15 6 -15 7 1 19 10 7 15 20 12 29 -4 8 -2 15 4 15 6 0 6 7 -1 19
-14 28 -13 31 13 31 14 0 31 -11 43 -27z m-542 -499 c4 -10 1 -14 -6 -12 -15
5 -23 28 -10 28 5 0 13 -7 16 -16z m786 -153 c-6 -12 -16 -21 -23 -21 -8 0 -9
3 -1 8 6 4 14 16 17 26 4 10 10 16 13 13 3 -3 1 -15 -6 -26z m-869 -313 c23 1
13 -35 -11 -41 -22 -6 -40 10 -40 36 0 14 4 17 18 12 9 -4 24 -7 33 -7z m1555
-864 c-3 -15 -8 -29 -11 -32 -3 -3 -3 5 -1 19 2 13 5 27 5 32 1 4 3 7 6 7 3 0
3 -12 1 -26z"/>
<path d="M2174 2547 c3 -10 6 -22 6 -27 0 -4 7 -10 15 -14 21 -8 19 8 -6 35
-16 19 -19 20 -15 6z"/>
<path d="M2290 2425 c0 -8 2 -15 4 -15 2 0 6 7 10 15 3 8 1 15 -4 15 -6 0 -10
-7 -10 -15z"/>
<path d="M2370 2294 c0 -17 17 -36 24 -26 3 5 -1 15 -9 22 -8 7 -15 9 -15 4z"/>
<path d="M2020 2229 c0 -4 -12 -10 -26 -13 -15 -4 -24 -9 -21 -12 3 -3 -3 -14
-14 -25 -21 -21 -25 -39 -9 -39 6 0 10 6 10 13 0 15 60 55 92 61 13 2 28 5 33
7 18 6 55 -21 55 -40 0 -17 -51 -71 -68 -71 -4 0 -24 -4 -44 -9 -31 -7 -42 -5
-62 10 -28 22 -36 24 -36 7 0 -23 16 -39 45 -44 15 -3 30 -6 34 -6 3 -1 23 1
43 5 54 11 128 85 121 121 -3 15 -13 31 -23 36 -19 10 -130 9 -130 -1z"/>
<path d="M2031 2164 c-22 -14 -41 -27 -41 -30 0 -2 14 -3 30 -2 17 1 30 6 30
11 0 4 4 6 9 3 4 -3 16 3 25 13 28 30 -5 33 -53 5z"/>
<path d="M1678 2133 c6 -2 18 -2 25 0 6 3 1 5 -13 5 -14 0 -19 -2 -12 -5z"/>
<path d="M1650 2088 c0 -9 -6 -19 -12 -21 -8 -3 -7 -6 4 -6 22 -1 33 18 19 32
-8 8 -11 7 -11 -5z"/>
<path d="M2308 1913 c7 -3 16 -2 19 1 4 3 -2 6 -13 5 -11 0 -14 -3 -6 -6z"/>
<path d="M1770 1879 c0 -5 9 -13 20 -19 11 -6 20 -17 20 -25 0 -8 4 -15 9 -15
12 0 22 44 11 48 -6 2 -8 7 -6 11 3 4 -8 8 -24 8 -17 0 -30 -4 -30 -8z"/>
<path d="M2276 1883 c5 -5 12 -12 16 -18 4 -6 8 -2 8 8 0 9 -7 17 -17 17 -9 0
-12 -3 -7 -7z"/>
<path d="M1723 1856 c15 -12 16 -14 2 -20 -8 -3 -15 0 -15 6 0 7 -4 7 -13 -1
-14 -11 -11 -71 3 -71 5 0 17 -3 27 -7 17 -7 17 -6 1 11 -10 9 -18 24 -18 33
0 11 5 13 18 8 9 -4 25 -7 36 -7 17 1 17 0 1 -19 -10 -10 -14 -19 -9 -19 5 0
16 9 24 19 7 11 18 18 24 15 6 -3 -1 4 -16 16 -16 12 -28 28 -28 36 0 9 -10
14 -27 14 -26 -1 -27 -2 -10 -14z"/>
<path d="M1705 1740 c-3 -5 -1 -10 4 -10 6 0 11 5 11 10 0 6 -2 10 -4 10 -3 0
-8 -4 -11 -10z"/>
</g>
</svg>
